<?xml version="1.0" encoding="utf-8"?>
<!-- Svg Vector Icons : http://www.onlinewebfonts.com/icon -->
<!DOCTYPE svg PUBLIC "-//W3C//DTD SVG 1.1//EN" "http://www.w3.org/Graphics/SVG/1.1/DTD/svg11.dtd">
<svg version="1.1" xmlns="http://www.w3.org/2000/svg" xmlns:xlink="http://www.w3.org/1999/xlink" x="0px" y="0px" viewBox="0 0 1000 1000" enable-background="new 0 0 1000 1000" xml:space="preserve">
<metadata> Svg Vector Icons : http://www.onlinewebfonts.com/icon </metadata>
<g><g transform="translate(0.000000,511.000000) scale(0.100000,-0.100000)"><path d="M3811.1,4995.1c-81.1-35.1-124.9-81.1-232.3-245.5c-175.3-263-396.7-407.6-653.1-427.3c-133.7-11-133.7-8.8-181.9,65.7c-61.4,96.4-206,197.2-348.5,245.5c-92,28.5-190.7,35.1-574.2,28.5c-506.2-6.6-517.2-11-626.8-157.8c-43.8-59.2-46-85.5-46-889.8s2.2-830.6,46-889.8c24.1-32.9,72.3-81.1,105.2-105.2c57-43.8,89.9-46,567.6-46h508.4l142.5,78.9c87.7,48.2,168.8,111.8,208.2,168.7c57,78.9,76.7,89.9,155.6,89.9c335.3,6.6,655.3-306.8,710-692.5c8.8-74.5,28.5-153.4,41.6-177.5c39.5-72.3,151.2-155.6,232.3-170.9l76.7-13.1l4.4-3217.1c6.6-3212.8,6.6-3219.4,52.6-3278.5c24.1-32.9,72.3-81.1,105.2-105.2c57-43.8,87.7-46,714.4-46c626.8,0,657.5,2.2,714.4,46c32.9,24.1,81.1,72.3,105.2,105.2c46,59.2,46,65.7,52.6,3276.3l4.4,3215l96.4,26.3c179.7,48.2,208.2,103,363.8,729.8c74.5,306.8,144.6,567.6,151.2,582.9c8.8,17.5,74.5,2.2,223.5-57c543.5-212.6,1087-574.2,1645.8-1093.6c118.3-109.6,190.7-160,245.4-170.9c230.1-41.6,429.5,120.5,429.5,350.6c0,87.7-116.2,320-300.2,604.9C7758,4046.2,6533,4758.5,4884.9,4962.3C4525.5,5006.1,3883.4,5025.8,3811.1,4995.1z M4858.6,4611.6c1424.5-177.5,2500.5-756.1,3236.9-1744.5c146.8-197.2,383.5-582.9,383.5-624.6c0-11-65.7,46-146.8,127.1c-611.4,596.1-1599.8,1159.3-2171.8,1236l-111.8,13.1l-21.9-83.3c-11-48.2-81.1-326.5-155.6-622.4c-74.5-295.9-142.5-574.2-155.6-618l-21.9-83.3h-872.2h-870l-26.3,133.7c-63.6,341.9-317.8,675-631.2,824c-168.7,78.9-181.9,83.3-460.2,89.8l-287.1,8.8l-15.3-78.9c-17.5-96.4-109.6-206-203.8-245.5c-50.4-21.9-179.7-30.7-455.8-30.7h-383.5v701.3v701.3h383.5c276.1,0,405.4-8.8,455.8-30.7c94.2-37.3,186.3-149,203.8-243.3l13.2-76.7h234.5c263,0,433.9,35.1,602.7,127.1c140.3,74.5,405.4,324.4,497.5,469l72.3,111.8l322.2-15.3C4453.2,4651.1,4716.2,4629.2,4858.6,4611.6z M5345.2-1294.5v-3155.8h-526h-526v3155.8v3155.8h526h526V-1294.5z"/></g></g>
</svg>